<?xml version="1.0" standalone="no"?>
<!DOCTYPE svg PUBLIC "-//W3C//DTD SVG 20010904//EN"
 "http://www.w3.org/TR/2001/REC-SVG-20010904/DTD/svg10.dtd">
<svg version="1.0" xmlns="http://www.w3.org/2000/svg"
 width="330.000000pt" height="312.000000pt" viewBox="0 0 330.000000 312.000000"
 preserveAspectRatio="xMidYMid meet">
<metadata>
Created by potrace 1.10, written by Peter Selinger 2001-2011
</metadata>
<g transform="translate(0.000000,312.000000) scale(0.100000,-0.100000)"
fill="#000000" stroke="none">
<path d="M594 2499 c-2 -4 16 -25 40 -47 111 -103 125 -148 133 -426 6 -225 6
-226 -69 -226 -55 0 -95 20 -159 78 -31 29 -60 52 -63 52 -3 0 -6 -47 -6 -105
0 -117 21 -199 62 -243 35 -37 100 -62 160 -62 61 0 78 -12 78 -52 0 -33 -24
-48 -77 -48 -74 1 -114 17 -164 66 -60 59 -63 54 -57 -99 6 -135 22 -176 89
-223 34 -24 61 -33 110 -39 105 -12 99 -1 99 -193 0 -117 -5 -194 -17 -257
-16 -83 -21 -93 -60 -132 -24 -23 -61 -50 -83 -60 -90 -41 -70 -43 479 -43
323 0 539 4 572 11 30 5 83 14 119 18 36 5 81 14 100 21 120 43 148 56 220 99
19 11 44 25 55 30 21 10 129 112 177 167 36 41 104 171 130 248 11 34 27 67
36 74 21 16 162 16 199 0 15 -7 50 -32 77 -55 27 -24 51 -41 54 -38 3 3 5 46
3 95 -7 219 -59 293 -219 308 l-67 7 0 45 0 45 76 0 c81 0 70 5 177 -81 l32
-27 0 91 c0 223 -47 287 -221 298 -52 4 -101 10 -109 14 -8 5 -24 34 -35 67
-77 230 -223 401 -431 502 -136 67 -249 94 -454 110 -154 13 -979 20 -986 10z
m973 -210 c15 -7 46 -15 68 -19 61 -12 118 -36 177 -74 50 -32 128 -107 128
-122 0 -4 6 -15 14 -23 19 -21 69 -125 86 -178 24 -78 53 -73 -434 -73 -386 0
-435 2 -440 16 -3 9 -6 121 -6 250 l0 234 189 0 c119 0 200 -4 218 -11z m507
-775 c22 -8 22 -80 0 -88 -20 -8 -878 -8 -898 0 -16 6 -23 73 -9 87 8 9 886 9
907 1z m-35 -408 c28 -33 -47 -180 -142 -282 -71 -76 -77 -81 -185 -134 -100
-49 -253 -73 -440 -68 l-107 3 -3 225 c-1 124 0 235 3 248 l5 22 429 0 c359 0
430 -2 440 -14z"/>
</g>
</svg>
