<svg width="16" height="16" viewBox="0 0 16 16" fill="none" xmlns="http://www.w3.org/2000/svg">
<path d="M2.44381 7.40774C2.16767 7.40851 1.89739 7.48745 1.66424 7.63542C1.4311 7.7834 1.24461 7.99435 1.12636 8.24389C1.0081 8.49343 0.962916 8.77135 0.996023 9.0455C1.02913 9.31964 1.13918 9.57882 1.31344 9.79303L5.02821 14.3436C5.16066 14.5081 5.33043 14.6386 5.52344 14.7242C5.71645 14.8099 5.92711 14.8483 6.13793 14.8362C6.58882 14.812 6.9959 14.5708 7.25544 14.1742L14.972 1.74675C14.9732 1.74469 14.9745 1.74263 14.9759 1.7406C15.0483 1.62943 15.0248 1.40912 14.8754 1.27072C14.8343 1.23272 14.7859 1.20352 14.7332 1.18492C14.6804 1.16633 14.6244 1.15873 14.5686 1.1626C14.5128 1.16647 14.4583 1.18173 14.4086 1.20743C14.3589 1.23313 14.315 1.26873 14.2796 1.31205C14.2769 1.31545 14.274 1.3188 14.2711 1.32211L6.48885 10.1148C6.45924 10.1483 6.42327 10.1755 6.38305 10.195C6.34282 10.2144 6.29912 10.2257 6.25451 10.2281C6.20989 10.2305 6.16524 10.224 6.12315 10.209C6.08106 10.1941 6.04236 10.1709 6.00931 10.1408L3.42654 7.79045C3.1583 7.54455 2.8077 7.40802 2.44381 7.40774Z" fill="#1F1F1F"/>
</svg>
