<svg width="400" height="405" viewBox="0 0 400 405" fill="none" xmlns="http://www.w3.org/2000/svg">
<g filter="url(#filter0_d_64_834)">
<path d="M50 74.25V315C50 331.569 63.4315 345 80 345H265.5C276.546 345 285.5 336.046 285.5 325V312.5C285.5 295.931 298.931 282.5 315.5 282.5H330C341.046 282.5 350 273.546 350 262.5V70C350 53.4315 336.569 40 320 40H82.5C75.8726 40 70.5 45.3726 70.5 52V53.75C70.5 59.4109 65.9109 64 60.25 64C54.5891 64 50 68.5891 50 74.25Z" fill="white"/>
</g>
<defs>
<filter id="filter0_d_64_834" x="0" y="0" width="400" height="405" filterUnits="userSpaceOnUse" color-interpolation-filters="sRGB">
<feFlood flood-opacity="0" result="BackgroundImageFix"/>
<feColorMatrix in="SourceAlpha" type="matrix" values="0 0 0 0 0 0 0 0 0 0 0 0 0 0 0 0 0 0 127 0" result="hardAlpha"/>
<feOffset dy="10"/>
<feGaussianBlur stdDeviation="25"/>
<feComposite in2="hardAlpha" operator="out"/>
<feColorMatrix type="matrix" values="0 0 0 0 0 0 0 0 0 0 0 0 0 0 0 0 0 0 0.08 0"/>
<feBlend mode="normal" in2="BackgroundImageFix" result="effect1_dropShadow_64_834"/>
<feBlend mode="normal" in="SourceGraphic" in2="effect1_dropShadow_64_834" result="shape"/>
</filter>
</defs>
</svg>
